<?xml version="1.0" encoding="utf-8"?>
<svg viewBox="327.962 2.827 612.767 790.691" xmlns="http://www.w3.org/2000/svg">
  <g transform="matrix(0.1, 0, 0, -0.1, 8.481787, 809.539368)" fill="#000000" stroke="none">
    <path d="M 5385.503 7962.908 C 5308.503 7880.908 5272.503 7864.908 5087.503 7828.908 C 4774.503 7766.908 4618.503 7634.908 4580.503 7398.908 C 4564.503 7294.908 4588.503 7131.908 4636.503 7016.908 C 4642.503 7003.908 4624.503 6997.908 4526.503 6978.908 C 4297.503 6933.908 4147.503 6867.908 4030.503 6758.908 C 3888.503 6627.908 3847.503 6530.908 3782.503 6167.908 C 3750.503 5994.908 3722.503 5944.908 3592.503 5830.908 C 3534.503 5779.908 3483.503 5737.908 3478.503 5737.908 C 3472.503 5737.908 3458.503 5747.908 3445.503 5758.908 C 3417.503 5785.908 3338.503 5794.908 3302.503 5775.908 C 3268.503 5757.908 3232.503 5700.908 3232.503 5665.908 C 3232.503 5613.908 3260.503 5570.908 3308.503 5546.908 C 3334.503 5534.908 3362.503 5527.908 3375.503 5531.908 C 3394.503 5535.908 3405.503 5527.908 3436.503 5487.908 C 3505.503 5396.908 3646.503 5296.908 3789.503 5237.908 C 3940.503 5174.908 4091.503 5147.908 4292.503 5147.908 L 4421.503 5147.908 L 4436.503 5096.908 C 4472.503 4975.908 4502.503 4658.908 4502.503 4390.908 C 4502.503 3947.908 4619.503 3588.908 4822.503 3404.908 C 4894.503 3339.908 4907.503 3305.908 4897.503 3204.908 C 4877.503 2997.908 4759.503 2651.908 4467.503 1937.908 C 4065.503 955.908 3957.503 645.908 3945.503 437.908 C 3938.503 317.908 3951.503 284.908 4013.503 265.908 C 4048.503 255.908 4065.503 256.908 4120.503 270.908 C 4202.503 292.908 4295.503 343.908 4344.503 394.908 C 4378.503 430.908 4382.503 442.908 4412.503 582.908 C 4550.503 1245.908 4807.503 2026.908 5061.503 2562.908 C 5147.503 2743.908 5247.503 2907.908 5271.503 2907.908 C 5290.503 2907.908 5334.503 2801.908 5357.503 2701.908 C 5371.503 2641.908 5414.503 2498.908 5452.503 2382.908 C 5674.503 1701.908 5833.503 1073.908 5921.503 522.908 C 5933.503 450.908 5945.503 378.908 5947.503 361.908 C 5951.503 337.908 5960.503 328.908 5990.503 318.908 C 6010.503 310.908 6068.503 284.908 6117.503 260.908 C 6190.503 225.908 6226.503 214.908 6300.503 205.908 C 6388.503 193.908 6393.503 194.908 6413.503 214.908 C 6477.503 278.908 6447.503 435.908 6211.503 1257.908 C 6027.503 1897.908 5945.503 2196.908 5890.503 2432.908 C 5851.503 2598.908 5848.503 2623.908 5849.503 2747.908 C 5849.503 2852.908 5854.503 2900.908 5870.503 2962.908 C 5899.503 3070.908 5971.503 3213.908 6021.503 3261.908 L 6060.503 3299.908 L 6174.503 3278.908 C 6368.503 3242.908 6474.503 3234.908 6652.503 3243.908 C 6888.503 3254.908 6916.503 3252.908 6992.503 3215.908 C 7042.503 3191.908 7082.503 3158.908 7168.503 3071.908 C 7414.503 2823.908 7499.503 2617.908 7509.503 2242.908 C 7520.503 1874.908 7461.503 1539.908 7262.503 847.908 C 7133.503 399.908 7119.503 309.908 7165.503 263.908 C 7189.503 239.908 7338.503 197.908 7398.503 197.908 C 7448.503 197.908 7501.503 217.908 7538.503 249.908 C 7626.503 327.908 7658.503 455.908 7742.503 1087.908 C 7862.503 1981.908 7928.503 2317.908 8022.503 2514.908 C 8062.503 2596.908 8099.503 2637.908 8134.503 2637.908 C 8194.503 2637.908 8311.503 2538.908 8376.503 2434.908 C 8493.503 2244.908 8555.503 1989.908 8592.503 1540.908 C 8598.503 1468.908 8607.503 1191.908 8611.503 925.908 C 8617.503 594.908 8623.503 432.908 8631.503 411.908 C 8646.503 372.908 8739.503 301.908 8795.503 286.908 C 8857.503 270.908 8906.503 281.908 8976.503 326.908 C 9010.503 349.908 9050.503 367.908 9065.503 367.908 C 9083.503 367.908 9097.503 376.908 9109.503 393.908 C 9138.503 437.908 9123.503 517.908 8944.503 1307.908 C 8878.503 1594.908 8814.503 1921.908 8787.503 2107.908 C 8752.503 2341.908 8743.503 2616.908 8766.503 2738.908 C 8796.503 2897.908 8783.503 2997.908 8720.503 3091.908 C 8703.503 3118.908 8645.503 3186.908 8591.503 3242.908 C 8453.503 3388.908 8441.503 3417.908 8469.503 3543.908 C 8492.503 3649.908 8492.503 3829.908 8468.503 3917.908 C 8446.503 3999.908 8394.503 4108.908 8338.503 4190.908 L 8294.503 4254.908 L 8346.503 4285.908 C 8374.503 4302.908 8423.503 4343.908 8455.503 4376.908 C 8635.503 4564.908 8649.503 4872.908 8496.503 5286.908 C 8453.503 5401.908 8324.503 5667.908 8311.503 5667.908 C 8306.503 5667.908 8291.503 5660.908 8277.503 5651.908 L 8254.503 5636.908 L 8284.503 5570.908 C 8307.503 5522.908 8316.503 5485.908 8320.503 5431.908 C 8326.503 5329.908 8308.503 5303.908 8158.503 5203.908 C 8095.503 5161.908 8030.503 5110.908 8014.503 5089.908 C 7929.503 4981.908 7886.503 4857.908 7895.503 4745.908 L 7901.503 4678.908 L 7784.503 4737.908 C 7515.503 4871.908 7272.503 4927.908 6954.503 4928.908 C 6862.503 4928.908 6747.503 4923.908 6697.503 4917.908 C 6369.503 4876.908 6047.503 4773.908 5713.503 4602.908 C 5553.503 4519.908 5464.503 4492.908 5390.503 4500.908 C 5282.503 4513.908 5247.503 4561.908 5248.503 4697.908 C 5250.503 4810.908 5282.503 4928.908 5381.503 5181.908 C 5487.503 5449.908 5520.503 5555.908 5547.503 5707.908 C 5579.503 5888.908 5575.503 6073.908 5537.503 6222.908 C 5517.503 6299.908 5462.503 6416.908 5415.503 6480.908 L 5379.503 6529.908 L 5418.503 6524.908 C 5574.503 6501.908 5734.503 6510.908 5861.503 6549.908 C 6067.503 6612.908 6237.503 6771.908 6320.503 6977.908 C 6367.503 7095.908 6384.503 7249.908 6361.503 7343.908 C 6349.503 7390.908 6305.503 7437.908 6272.503 7437.908 C 6262.503 7437.908 6218.503 7412.908 6175.503 7382.908 C 6132.503 7351.908 6075.503 7315.908 6047.503 7302.908 C 5998.503 7278.908 5993.503 7277.908 5846.503 7284.908 C 5708.503 7289.908 5690.503 7288.908 5626.503 7268.908 C 5538.503 7239.908 5445.503 7177.908 5361.503 7090.908 C 5291.503 7018.908 5202.503 6905.908 5177.503 6856.908 C 5159.503 6823.908 5150.503 6820.908 5131.503 6843.908 C 5124.503 6852.908 5094.503 6873.908 5064.503 6890.908 L 5010.503 6920.908 L 5070.503 6952.908 C 5256.503 7051.908 5415.503 7211.908 5489.503 7374.908 C 5531.503 7465.908 5552.503 7564.908 5559.503 7694.908 C 5569.503 7897.908 5530.503 8027.908 5458.503 8027.908 C 5452.503 8027.908 5419.503 7998.908 5385.503 7962.908 Z"/>
  </g>
</svg>