<svg xmlns="http://www.w3.org/2000/svg" xmlns:xlink="http://www.w3.org/1999/xlink" version="1.1" x="0px" y="0px" viewBox="0 0 64 80" style="enable-background:new 0 0 64 64;" xml:space="preserve"><path d="M61,2H3C2.447,2,2,2.447,2,3v58c0,0.553,0.447,1,1,1h58c0.553,0,1-0.447,1-1V3C62,2.447,61.553,2,61,2z M60,50.697  l-1.155,1.733l-8.138-8.138c-0.391-0.391-1.023-0.391-1.414,0L41,52.586l-8.293-8.293c-0.391-0.391-1.023-0.391-1.414,0L23,52.586  l-8.293-8.293c-0.391-0.391-1.023-0.391-1.414,0l-8.138,8.138L4,50.697V37.303l0.168,0.252c0.166,0.249,0.436,0.411,0.733,0.44  c0.307,0.028,0.595-0.076,0.806-0.288L14,29.414l8.293,8.293c0.391,0.391,1.023,0.391,1.414,0L32,29.414l8.293,8.293  c0.391,0.391,1.023,0.391,1.414,0L50,29.414l8.293,8.293C58.481,37.896,58.736,38,59,38c0.032,0,0.065-0.002,0.099-0.005  c0.298-0.029,0.567-0.191,0.733-0.44L60,37.303V50.697z M60,33.697l-1.155,1.733l-8.138-8.138c-0.391-0.391-1.023-0.391-1.414,0  L41,35.586l-8.293-8.293c-0.391-0.391-1.023-0.391-1.414,0L23,35.586l-8.293-8.293c-0.391-0.391-1.023-0.391-1.414,0l-8.138,8.138  L4,33.697V19.303l0.168,0.252c0.166,0.249,0.436,0.411,0.733,0.44c0.307,0.028,0.595-0.076,0.806-0.288L14,11.414l8.293,8.293  c0.391,0.391,1.023,0.391,1.414,0L32,11.414l8.293,8.293c0.391,0.391,1.023,0.391,1.414,0L50,11.414l8.293,8.293  C58.481,19.896,58.736,20,59,20c0.032,0,0.065-0.002,0.099-0.005c0.298-0.029,0.567-0.191,0.733-0.44L60,19.303V33.697z M60,4  v11.697l-1.155,1.733l-8.138-8.138c-0.391-0.391-1.023-0.391-1.414,0L41,17.586l-8.293-8.293c-0.391-0.391-1.023-0.391-1.414,0  L23,17.586l-8.293-8.293c-0.391-0.391-1.023-0.391-1.414,0l-8.138,8.138L4,15.697V4H60z M4,60v-5.697l0.168,0.252  c0.166,0.249,0.436,0.411,0.733,0.44c0.307,0.029,0.595-0.076,0.806-0.288L14,46.414l8.293,8.293c0.391,0.391,1.023,0.391,1.414,0  L32,46.414l8.293,8.293c0.391,0.391,1.023,0.391,1.414,0L50,46.414l8.293,8.293C58.481,54.896,58.736,55,59,55  c0.032,0,0.065-0.002,0.099-0.005c0.298-0.029,0.567-0.191,0.733-0.44L60,54.303V60H4z"/></svg>