<svg xmlns="http://www.w3.org/2000/svg" viewBox="10.19000000000003 10.350000000000062 979.6 979.62">
    <path d="M161.12,11.89c-39.12,7.48 -70.19,23.97 -98.38,52.74c-24.74,24.93 -40.66,53.32 -49.29,87.64c-4.6,18.22 -4.6,63.86 0,82.08c9.01,35.67 24.55,63.1 51.21,89.37c19.37,19.18 38.17,31.64 61.56,41.04c23.59,9.21 37.01,11.51 66.93,11.51c34.9,-0 42.58,-1.73 85.54,-19.37c2.68,-0.96 36.05,44.3 41.61,56.77c4.03,8.44 4.03,11.7 4.03,86.49c0,74.79 0,78.05 -4.03,86.49c-5.56,12.46 -38.93,57.73 -41.61,56.77c-42.96,-17.64 -50.63,-19.37 -85.54,-19.37c-39.12,-0 -65.97,7.48 -97.81,27.23c-18.41,11.32 -46.6,39.51 -57.92,57.92c-19.75,31.83 -27.23,58.68 -27.23,97.81c0,30.69 2.3,43.54 12.47,68.85c18.03,45.07 57.92,84.57 103.56,102.6c23.59,9.21 37.01,11.51 66.93,11.51c39.12,-0 65.97,-7.48 97.81,-27.23c18.41,-11.32 46.6,-39.51 57.92,-57.92c19.75,-31.83 27.23,-58.68 27.23,-97.81c0,-34.9 -1.73,-42.58 -19.37,-85.54c-0.96,-2.68 43.92,-35.86 55.62,-41.04c11.7,-5.18 28.38,-7.29 45.45,-5.56c18.41,1.92 65.97,1.92 84.38,-0c17.07,-1.72 33.75,0.38 45.45,5.56c4.6,2.11 19.37,11.7 32.41,21.29c18.6,13.62 23.78,18.22 22.63,20.71c-15.34,35.1 -20.91,62.14 -19.37,93.21c2.49,48.71 20.52,88.03 55.81,122.74c24.93,24.36 52.55,39.7 86.68,48.33c18.22,4.6 63.86,4.6 82.08,-0c34.9,-8.82 62.9,-24.55 88.6,-50.06c25.51,-25.7 41.23,-53.7 50.06,-88.6c4.6,-18.22 4.6,-63.86 0,-82.08c-8.63,-34.14 -23.97,-61.75 -48.33,-86.69c-34.71,-35.29 -74.03,-53.31 -122.74,-55.81c-31.07,-1.53 -58.11,4.03 -93.21,19.37c-2.49,1.15 -7.1,-4.03 -20.71,-22.63c-9.59,-13.04 -19.18,-27.81 -21.29,-32.41c-5.18,-11.7 -7.1,-28.19 -5.56,-46.41c1.92,-19.75 1.92,-62.71 0,-82.47c-1.53,-18.22 0.38,-34.71 5.56,-46.41c5.18,-11.7 38.36,-56.58 41.04,-55.62c42.96,17.64 50.63,19.37 85.53,19.37c39.12,-0 65.97,-7.48 97.81,-27.23c18.41,-11.32 46.6,-39.51 57.92,-57.92c19.75,-31.84 27.23,-58.69 27.23,-97.81c0,-38.55 -6.14,-61.56 -25.51,-94.93c-11.31,-19.56 -39.89,-48.71 -59.64,-60.79c-32.03,-19.75 -58.68,-27.23 -97.81,-27.23c-39.12,-0 -65.97,7.48 -97.81,27.23c-18.41,11.32 -46.6,39.51 -57.92,57.92c-19.75,31.83 -27.23,58.68 -27.23,97.81c0,34.9 1.73,42.58 19.37,85.53c0.96,2.69 -44.3,36.05 -56.77,41.62c-8.44,3.84 -11.89,4.03 -86.49,4.03c-74.6,-0 -78.06,-0.19 -86.49,-4.03c-12.47,-5.56 -57.73,-38.93 -56.77,-41.62c17.64,-42.96 19.37,-50.63 19.37,-85.53c0,-29.92 -2.3,-43.34 -11.51,-66.93c-9.01,-22.63 -21.86,-42.19 -40.08,-60.79c-25.7,-26.27 -52.17,-41.81 -87.07,-50.82C218.47,9.59 180.3,8.25 161.12,11.89zM229.59,44.3c19.18,5.37 32.22,10.93 46.41,20.33c60.99,39.89 85.34,113.34 60.6,182c-3.84,10.36 -6.52,15.34 -7.86,14.38c-1.34,-0.77 -21.86,-15.53 -45.84,-32.99c-38.36,-27.62 -43.73,-32.22 -43.73,-36.63c0,-2.88 -0.96,-7.86 -2.11,-11.32c-2.11,-5.75 -1.73,-6.33 11.89,-20.9c17.07,-18.22 29.92,-35.1 34.71,-46.22c3.45,-7.29 3.45,-8.63 0.96,-11.12c-2.49,-2.49 -3.84,-2.49 -11.12,0.96c-11.12,4.79 -28,17.64 -46.22,34.71c-14.57,13.62 -15.15,14 -20.9,11.89c-15.54,-5.37 -31.64,-0.96 -44.88,12.27c-13.23,13.23 -17.64,29.34 -12.27,44.88c2.11,5.75 1.72,6.33 -11.89,20.9c-17.07,18.22 -29.92,35.1 -34.71,46.22c-3.45,7.29 -3.45,8.63 -0.96,11.13c2.49,2.49 3.84,2.49 11.12,-0.96c11.12,-4.79 28,-17.64 46.22,-34.71c14.57,-13.62 15.15,-14 20.91,-11.89c3.45,1.15 8.44,2.11 11.31,2.11c4.41,-0 9.01,5.37 36.63,43.53c17.45,24.16 32.22,44.68 32.98,46.03c0.96,1.34 -4.03,4.03 -14.38,7.86c-68.66,24.74 -142.11,0.38 -182,-60.6c-36.63,-55.81 -31.64,-130.41 11.7,-181.62c23.01,-27.04 52.36,-44.3 88.22,-51.97C179.73,39.32 214.63,40.28 229.59,44.3zM843.29,44.3c29.15,8.06 51.97,20.9 71.73,40.85c59.83,59.84 59.83,156.3 0,216.14c-35.67,35.86 -87.07,51.97 -135.4,42.77c-18.79,-3.64 -42.19,-12.47 -40.46,-15.34c0.57,-1.15 15.53,-21.67 32.99,-45.83c27.62,-37.97 32.22,-43.53 36.63,-43.53c2.88,-0 7.86,-0.96 11.32,-2.11c5.75,-2.11 6.33,-1.72 20.9,11.89c18.22,17.07 35.1,29.92 46.22,34.71c7.29,3.45 8.63,3.45 11.12,0.96c2.49,-2.49 2.49,-3.84 -0.96,-11.13c-4.79,-11.12 -17.64,-28 -34.71,-46.22c-13.62,-14.57 -14,-15.15 -11.89,-20.9c5.37,-15.53 0.96,-31.64 -12.27,-44.88c-13.23,-13.23 -29.34,-17.64 -44.88,-12.27c-5.75,2.11 -6.33,1.73 -20.9,-11.89c-18.22,-17.07 -35.1,-29.92 -46.22,-34.71c-7.29,-3.45 -8.63,-3.45 -11.12,-0.96c-2.49,2.49 -2.49,3.84 0.96,11.12c4.79,11.12 17.64,28 34.71,46.22c13.62,14.57 14,15.15 11.89,20.9c-1.15,3.45 -2.11,8.44 -2.11,11.32c0,4.41 -5.37,9.01 -43.34,36.63c-23.97,17.26 -44.49,32.03 -45.84,32.8c-3.07,1.92 -11.7,-20.52 -15.53,-40.27c-8.44,-43.92 4.22,-91.1 33.75,-126c23.01,-27.04 52.36,-44.3 88.22,-51.97C793.42,39.32 828.33,40.28 843.29,44.3zM220.38,656.27c19.75,3.84 42.19,12.47 40.27,15.54c-0.77,1.34 -15.53,21.86 -32.79,45.83c-27.62,37.97 -32.22,43.34 -36.63,43.34c-2.88,-0 -7.86,0.96 -11.31,2.11c-5.75,2.11 -6.33,1.73 -20.91,-11.89c-18.22,-17.07 -35.1,-29.92 -46.22,-34.71c-7.29,-3.45 -8.63,-3.45 -11.12,-0.96c-2.49,2.49 -2.49,3.84 0.96,11.12c4.79,11.12 17.64,28 34.71,46.22c13.62,14.58 14,15.15 11.89,20.9c-11.51,32.8 24.35,68.66 57.15,57.15c5.75,-2.11 6.33,-1.73 20.9,11.89c18.22,17.07 35.1,29.92 46.22,34.71c7.29,3.45 8.63,3.45 11.12,0.96c2.49,-2.49 2.49,-3.84 -0.96,-11.12c-4.79,-11.13 -17.64,-28 -34.71,-46.22c-13.62,-14.57 -14,-15.15 -11.89,-20.9c1.15,-3.45 2.11,-8.44 2.11,-11.32c0,-4.41 5.56,-9.01 43.73,-36.63c23.97,-17.45 44.49,-32.41 45.65,-32.99c2.88,-1.73 11.7,21.67 15.34,40.46c9.21,48.33 -6.91,99.73 -42.77,135.4C250.11,966.19 169.95,974.82 110.3,935.7c-60.41,-39.7 -85.15,-112.77 -61.18,-180.85C73.86,685.23 148.27,642.47 220.38,656.27zM843.29,658c29.15,8.05 51.97,20.91 71.73,40.85c50.25,50.25 59.45,127.73 22.25,187.95C892.38,960.06 795.15,982.3 724,935.7c-60.99,-39.89 -85.34,-113.34 -60.6,-182c3.84,-10.36 6.52,-15.34 7.86,-14.38c1.34,0.77 21.86,15.53 46.03,32.99c38.17,27.62 43.54,32.22 43.54,36.63c0,2.88 0.96,7.86 2.11,11.32c2.11,5.75 1.73,6.33 -12.47,21.48c-16.68,17.64 -30.3,36.25 -34.9,46.79c-2.5,6.33 -2.69,7.67 -0.19,9.97c2.49,2.49 3.84,2.49 11.12,-0.96c11.13,-4.79 28,-17.64 46.22,-34.71c14.57,-13.62 15.15,-14 20.9,-11.89c15.54,5.37 31.64,0.96 44.88,-12.27c13.23,-13.23 17.64,-29.34 12.27,-44.88c-2.11,-5.75 -1.73,-6.33 11.89,-20.9c17.07,-18.22 29.92,-35.1 34.71,-46.22c3.45,-7.29 3.45,-8.63 0.96,-11.12c-2.3,-2.49 -3.64,-2.3 -9.97,0.19c-10.55,4.6 -29.15,18.22 -46.8,34.9c-15.15,14.19 -15.72,14.58 -21.48,12.47c-3.45,-1.15 -8.44,-2.11 -11.32,-2.11c-4.41,-0 -9.01,-5.56 -36.63,-43.73c-17.45,-23.97 -32.41,-44.49 -32.99,-45.65c-1.53,-2.68 20.71,-11.31 38.93,-15.34C793.42,653.02 828.33,653.97 843.29,658z" fill="#000000"/>
</svg>